<svg width="1101" height="1142" viewBox="0 0 1101 1142" fill="none" xmlns="http://www.w3.org/2000/svg">
<path d="M496.307 833.849L514.405 739.02C516.647 727.297 507.689 716.415 495.759 716.355C485.259 716.294 476.768 707.765 476.768 697.259V495.259C476.768 476.539 452.613 469.004 441.961 484.398L377.208 577.98C373.637 583.131 367.773 586.214 361.503 586.214H247.132C231.742 586.214 222.673 568.954 231.407 556.288L372.389 351.773L457.533 228.255C461.094 223.083 466.978 220 473.258 220H594.68C605.2 220 613.742 228.508 613.783 239.025L614.858 566.936C614.888 577.452 623.43 585.961 633.961 585.961H711.76L530.778 848.26C519.051 865.256 492.421 854.131 496.297 833.839L496.307 833.849Z" fill="white" stroke="white" stroke-width="25" stroke-miterlimit="10"/>
<path d="M769.372 487.207H588.441C577.87 487.207 569.308 495.796 569.339 506.363L569.765 632.265C569.795 642.781 578.337 651.29 588.867 651.29H666.677L485.685 913.588C473.958 930.585 447.328 919.45 451.203 899.168L469.301 804.349C471.543 792.626 462.596 781.744 450.655 781.683C440.156 781.622 431.665 773.094 431.665 762.588V506.303C431.665 495.756 423.113 487.207 412.562 487.207H250.723C235.334 487.207 226.264 469.947 234.999 457.281L303.78 357.523C307.341 352.361 313.215 349.268 319.494 349.268L431.675 349.197L568.811 349.116L874.726 348.934L785.107 478.952C781.546 484.124 775.662 487.207 769.383 487.207H769.372Z" fill="#754BC4" stroke="#754BC4" stroke-width="25" stroke-miterlimit="10"/>
</svg>
