<svg width="512" height="512" viewBox="0 0 512 512" fill="none" xmlns="http://www.w3.org/2000/svg">
<mask id="mask0_216_12" style="mask-type:luminance" maskUnits="userSpaceOnUse" x="2" y="2" width="505" height="508">
<path d="M116.677 2.11676H393.108C423.275 2.20437 452.182 14.367 473.513 35.9475C494.845 57.5281 506.867 86.7725 506.954 117.292V394.625C506.856 425.137 494.829 454.371 473.499 475.943C452.169 497.514 423.268 509.671 393.108 509.759H116.677C86.5168 509.671 57.616 497.514 36.2857 475.943C14.9553 454.371 2.92822 425.137 2.83081 394.625V117.292C2.91741 86.7725 14.9397 57.5281 36.2712 35.9475C57.6028 14.367 86.5097 2.20437 116.677 2.11676Z" fill="white"/>
</mask>
<g mask="url(#mask0_216_12)">
<mask id="mask1_216_12" style="mask-type:luminance" maskUnits="userSpaceOnUse" x="2" y="2" width="505" height="508">
<path d="M506.954 2.11676H2.83081V509.759H506.954V2.11676Z" fill="white"/>
</mask>
<g mask="url(#mask1_216_12)">
<rect width="512" height="512" transform="matrix(1 0 0 -1 0 512)" fill="#754BC4"/>
</g>
</g>
<path d="M353.026 329.671L364.185 255.958H294.113V208.104C294.113 187.933 303.877 168.301 335.139 168.301H367.139V105.546C348.48 102.496 329.627 100.832 310.728 100.565C253.292 100.565 215.508 135.844 215.508 199.761V255.958H151.508V329.671H215.508V510.506H294.113V329.671H353.026Z" fill="white"/>
</svg>
