<svg width="512" height="512" viewBox="0 0 512 512" fill="none" xmlns="http://www.w3.org/2000/svg">
<path d="M256.124 3.87878C150.849 3.87878 120.06 3.98739 114.076 4.48388C92.4714 6.27975 79.0279 9.68145 64.3821 16.9736C53.0952 22.5784 44.1936 29.0754 35.4084 38.1828C19.4089 54.7918 9.71222 75.2252 6.20203 99.5142C4.49541 111.306 3.99894 113.711 3.8981 173.94C3.85931 194.017 3.8981 220.439 3.8981 255.88C3.8981 361.072 4.01446 391.831 4.51869 397.805C6.26409 418.828 9.56096 432.054 16.5426 446.522C29.8852 474.217 55.3681 495.007 85.389 502.765C95.7838 505.441 107.265 506.915 122.004 507.613C128.248 507.885 191.897 508.079 255.585 508.079C319.273 508.079 382.961 508.001 389.05 507.691C406.116 506.888 416.026 505.557 426.983 502.726C457.198 494.929 482.216 474.449 495.83 446.367C502.676 432.248 506.147 418.517 507.718 398.592C508.059 394.248 508.203 324.984 508.203 255.814C508.203 186.632 508.048 117.496 507.706 113.152C506.116 92.9047 502.645 79.2902 495.578 64.8999C489.779 53.12 483.341 44.3229 473.993 35.328C457.311 19.3939 436.909 9.69697 412.597 6.19054C400.818 4.48775 398.471 3.98351 338.197 3.87878H256.124Z" fill="url(#paint0_radial_216_26)"/>
<path d="M256.124 3.87878C150.849 3.87878 120.06 3.98739 114.076 4.48388C92.4714 6.27975 79.0279 9.68145 64.3821 16.9736C53.0952 22.5784 44.1936 29.0754 35.4084 38.1828C19.4089 54.7918 9.71222 75.2252 6.20203 99.5142C4.49541 111.306 3.99894 113.711 3.8981 173.94C3.85931 194.017 3.8981 220.439 3.8981 255.88C3.8981 361.072 4.01446 391.831 4.51869 397.805C6.26409 418.828 9.56096 432.054 16.5426 446.522C29.8852 474.217 55.3681 495.007 85.389 502.765C95.7838 505.441 107.265 506.915 122.004 507.613C128.248 507.885 191.897 508.079 255.585 508.079C319.273 508.079 382.961 508.001 389.05 507.691C406.116 506.888 416.026 505.557 426.983 502.726C457.198 494.929 482.216 474.449 495.83 446.367C502.676 432.248 506.147 418.517 507.718 398.592C508.059 394.248 508.203 324.984 508.203 255.814C508.203 186.632 508.048 117.496 507.706 113.152C506.116 92.9047 502.645 79.2902 495.578 64.8999C489.779 53.12 483.341 44.3229 473.993 35.328C457.311 19.3939 436.909 9.69697 412.597 6.19054C400.818 4.48775 398.471 3.98351 338.197 3.87878H256.124Z" fill="#754BC4"/>
<path d="M256.008 69.8182C205.445 69.8182 199.1 70.0393 179.241 70.9431C159.421 71.8507 145.892 74.9887 134.055 79.5928C121.81 84.3482 111.423 90.7094 101.074 101.062C90.7183 111.41 84.3573 121.798 79.5865 134.039C74.9709 145.881 71.8292 159.414 70.9371 179.227C70.0489 199.087 69.8162 205.436 69.8162 256C69.8162 306.564 70.0411 312.89 70.941 332.75C71.8525 352.57 74.9903 366.099 79.5904 377.938C84.3495 390.183 90.7106 400.57 101.063 410.919C111.407 421.275 121.794 427.652 134.031 432.407C145.877 437.011 159.41 440.149 179.226 441.057C199.084 441.961 205.426 442.182 255.985 442.182C306.551 442.182 312.877 441.961 332.736 441.057C352.556 440.149 366.1 437.011 377.945 432.407C390.187 427.652 400.558 421.275 410.903 410.919C421.259 400.57 427.62 390.183 432.39 377.941C436.967 366.099 440.109 352.566 441.04 332.754C441.932 312.894 442.165 306.564 442.165 256C442.165 205.436 441.932 199.09 441.04 179.231C440.109 159.41 436.967 145.881 432.39 134.043C427.62 121.798 421.259 111.41 410.903 101.062C400.547 90.7055 390.19 84.3443 377.934 79.5928C366.065 74.9887 352.529 71.8507 332.709 70.9431C312.85 70.0393 306.528 69.8182 255.95 69.8182H256.008ZM239.306 103.37C244.263 103.362 249.794 103.37 256.008 103.37C305.717 103.37 311.609 103.548 331.239 104.44C349.391 105.27 359.243 108.304 365.805 110.852C374.493 114.226 380.688 118.26 387.2 124.777C393.716 131.293 397.75 137.499 401.132 146.188C403.68 152.743 406.717 162.595 407.544 180.748C408.436 200.374 408.63 206.27 408.63 255.957C408.63 305.645 408.436 311.54 407.544 331.167C406.714 349.32 403.68 359.172 401.132 365.727C397.758 374.416 393.716 380.602 387.2 387.115C380.684 393.631 374.497 397.665 365.805 401.04C359.25 403.6 349.391 406.625 331.239 407.455C311.612 408.347 305.717 408.541 256.008 408.541C206.295 408.541 200.403 408.347 180.777 407.455C162.625 406.617 152.773 403.584 146.207 401.036C137.518 397.661 131.312 393.627 124.796 387.111C118.28 380.594 114.246 374.404 110.864 365.712C108.316 359.156 105.279 349.304 104.453 331.152C103.561 311.525 103.382 305.629 103.382 255.911C103.382 206.193 103.561 200.328 104.453 180.701C105.283 162.548 108.316 152.696 110.864 146.133C114.239 137.445 118.28 131.239 124.796 124.722C131.312 118.206 137.518 114.172 146.207 110.79C152.769 108.23 162.625 105.204 180.777 104.37C197.952 103.595 204.608 103.362 239.306 103.323V103.37ZM355.387 134.284C343.053 134.284 333.046 144.279 333.046 156.618C333.046 168.952 343.053 178.96 355.387 178.96C367.721 178.96 377.728 168.952 377.728 156.618C377.728 144.283 367.721 134.276 355.387 134.276V134.284ZM256.008 160.388C203.208 160.388 160.399 203.198 160.399 256C160.399 308.802 203.208 351.593 256.008 351.593C308.808 351.593 351.602 308.802 351.602 256C351.602 203.198 308.808 160.388 256.008 160.388ZM256.008 193.939C290.28 193.939 318.067 221.723 318.067 256C318.067 290.273 290.28 318.061 256.008 318.061C221.732 318.061 193.949 290.273 193.949 256C193.949 221.723 221.732 193.939 256.008 193.939Z" fill="white"/>
<defs>
<radialGradient id="paint0_radial_216_26" cx="0" cy="0" r="1" gradientUnits="userSpaceOnUse" gradientTransform="translate(137.842 546.912) rotate(-90) scale(499.699 464.872)">
<stop stop-color="#FFDD55"/>
<stop offset="0.1" stop-color="#FFDD55"/>
<stop offset="0.5" stop-color="#FF543E"/>
<stop offset="1" stop-color="#C837AB"/>
</radialGradient>
</defs>
</svg>
