<svg width="1101" height="1142" viewBox="0 0 1101 1142" fill="none" xmlns="http://www.w3.org/2000/svg">
<path d="M464.836 979.951L493.02 832.273C496.511 814.016 482.561 797.071 463.982 796.976C447.631 796.881 434.408 783.599 434.408 767.238V452.662C434.408 423.509 396.792 411.775 380.203 435.748L279.362 581.484C273.801 589.507 264.669 594.308 254.906 594.308H76.794C52.8278 594.308 38.7039 567.428 52.3064 547.703L271.857 229.211L404.454 36.8553C409.999 28.801 419.162 24 428.941 24H618.033C634.416 24 647.718 37.2501 647.782 53.6272L649.456 564.286C649.504 580.663 662.806 593.913 679.205 593.913H800.363L518.519 1002.39C500.256 1028.86 458.785 1011.54 464.82 979.935L464.836 979.951Z" fill="white" stroke="black" stroke-width="35" stroke-miterlimit="10"/>
<path d="M890.082 440.123H608.317C591.855 440.123 578.521 453.499 578.569 469.956L579.232 666.022C579.28 682.4 592.582 695.65 608.981 695.65H730.155L448.295 1104.13C430.032 1130.6 388.561 1113.26 394.596 1081.67L422.78 934.009C426.272 915.753 412.337 898.807 393.742 898.713C377.391 898.618 364.168 885.336 364.168 868.975V469.861C364.168 453.436 350.85 440.123 334.419 440.123H82.3867C58.4204 440.123 44.2966 413.244 57.8991 393.519L165.013 238.165C170.558 230.127 179.705 225.31 189.484 225.31L364.184 225.2L577.747 225.073L1054.15 224.789L914.586 427.268C909.04 435.322 899.877 440.123 890.098 440.123H890.082Z" fill="#754BC4" stroke="black" stroke-width="35" stroke-miterlimit="10"/>
</svg>
