<svg width="1452" height="472" viewBox="0 0 1452 472" fill="none" xmlns="http://www.w3.org/2000/svg">
<path fill-rule="evenodd" clip-rule="evenodd" d="M1424.19 43.3231H1358.7C1348.2 43.3231 1334.89 51.0289 1329.63 61.1866L1213.01 266.792C1207.76 274.848 1199.01 274.848 1193.75 265.741L1076.78 60.1358C1071.53 51.0289 1058.22 43.3231 1047.72 43.3231H982.577C972.071 43.3231 967.518 51.0289 972.771 60.1358L1172.04 405.497L1180.09 419.507C1183.6 425.462 1192 430.716 1199.01 430.716H1206.71C1213.71 430.716 1222.47 425.812 1225.97 419.858L1234.38 405.847L1250.49 377.826L1434 60.1358C1439.25 50.6787 1435.05 43.3231 1424.19 43.3231Z" fill="#754BC4"/>
<path fill-rule="evenodd" clip-rule="evenodd" d="M837.941 212.851L720.971 133.341C712.566 127.737 698.908 118.28 690.503 112.676L568.63 29.6628C560.225 24.0586 553.221 27.5613 553.221 37.7189V109.523C553.221 119.681 560.225 132.641 568.63 138.595L636.921 185.18C645.326 190.785 658.984 200.242 667.389 205.846L701.709 229.314C710.114 234.918 710.114 244.375 701.709 249.979L667.389 273.447C658.984 279.051 645.326 288.508 636.921 294.113L568.63 340.698C560.225 346.302 553.221 359.262 553.221 369.77V441.574C553.221 451.732 560.225 455.234 568.63 449.63L690.503 366.617C698.908 361.013 712.566 351.556 720.971 345.601L837.59 266.091C843.544 262.239 848.097 253.132 848.097 246.126V232.116C848.447 225.811 843.544 216.704 837.941 212.851Z" fill="#754BC4"/>
<path fill-rule="evenodd" clip-rule="evenodd" d="M295.817 29.6628L173.944 112.676C165.539 118.28 151.881 127.737 143.476 133.341L26.5063 212.851C20.5527 216.704 16 225.811 16 232.816V246.827C16 253.832 20.9029 262.589 26.5063 266.792L143.126 346.302C151.531 351.906 165.189 361.363 173.594 367.318L295.817 449.98C304.222 455.585 311.226 452.082 311.226 441.924V370.12C311.226 359.962 304.222 347.003 295.817 341.048L227.526 294.463C219.121 288.859 205.113 279.401 196.708 273.797L162.387 250.33C153.982 244.725 153.982 235.268 162.387 229.664L196.708 206.196C205.113 200.592 219.121 191.135 227.526 185.531L295.817 138.595C304.222 132.991 311.226 120.031 311.226 109.523V37.7189C311.226 27.5613 304.222 24.0586 295.817 29.6628Z" fill="#754BC4"/>
</svg>
