<svg width="1410" height="448" viewBox="0 0 1410 448" fill="none" xmlns="http://www.w3.org/2000/svg">
<g clip-path="url(#clip0_308_2)">
<path d="M236.875 26.8844L0 136.609L59.0208 361.288L103.94 355.77L91.589 214.5L106.338 207.928L131.808 352.34L208.575 342.912L194.929 186.985L209.535 180.484L237.546 339.362L315.201 329.814L300.26 158.895L315.033 152.322L345.659 326.072L422.427 316.644V73.3746L236.875 26.8844ZM242.439 367.645L246.348 389.762L422.427 419.124V345.527L242.534 367.645H242.439ZM588.961 321.538V351.836H626.302C626.305 357.981 624.719 364.022 621.697 369.372C618.537 374.702 613.862 378.969 608.267 381.63C601.577 384.687 594.274 386.165 586.922 385.948C578.434 386.183 570.072 383.842 562.94 379.231C555.974 374.394 550.599 367.598 547.495 359.704C543.626 349.833 541.775 339.286 542.051 328.687C541.768 318.17 543.662 307.707 547.615 297.957C550.847 290.187 556.262 283.521 563.204 278.766C570.203 274.221 578.412 271.896 586.755 272.097C591.098 272.059 595.425 272.633 599.609 273.801C603.331 274.867 606.843 276.563 609.994 278.814C612.985 280.97 615.567 283.643 617.62 286.707C619.766 289.984 621.384 293.578 622.416 297.358H663.834C662.75 288.664 659.928 280.277 655.536 272.697C651.166 265.218 645.431 258.627 638.629 253.266C631.5 247.692 623.459 243.399 614.862 240.576C605.525 237.536 595.758 236.03 585.939 236.114C574.451 236.019 563.052 238.136 552.364 242.351C542.094 246.442 532.809 252.664 525.12 260.607C517.074 269.001 510.859 278.975 506.869 289.897C502.312 302.537 500.094 315.9 500.322 329.335C500.322 348.43 503.951 364.894 511.21 378.727C518.073 392.052 528.642 403.107 541.644 410.56C554.817 417.591 569.454 421.435 584.381 421.785C599.308 422.135 614.109 418.981 627.597 412.575C639.267 406.653 648.984 397.491 655.584 386.188C662.379 374.689 665.769 360.936 665.753 344.927V321.514L588.961 321.538ZM1104.66 419.436V238.465H1228.57V271.953H1145.55V312.159H1212.67V345.647H1145.55V385.948H1228.76V419.436H1104.66ZM1348.87 291.576C1348.69 288.466 1347.83 285.431 1346.37 282.682C1344.9 279.932 1342.86 277.533 1340.38 275.648C1335.37 271.834 1328.39 269.938 1319.54 269.938C1314.43 269.768 1309.33 270.582 1304.53 272.337C1300.9 273.66 1297.72 275.97 1295.34 279.006C1293.28 281.781 1292.16 285.144 1292.15 288.602C1292.04 291.357 1292.69 294.09 1294.04 296.494C1295.47 298.884 1297.44 300.899 1299.8 302.371C1302.57 304.166 1305.55 305.608 1308.67 306.665C1312.32 307.935 1316.03 308.984 1319.8 309.808L1335.7 313.502C1343.5 315.16 1351.09 317.637 1358.37 320.89C1364.67 323.704 1370.5 327.492 1375.63 332.117C1380.33 336.397 1384.07 341.621 1386.62 347.446C1389.28 353.732 1390.59 360.507 1390.48 367.333C1390.75 377.665 1387.78 387.823 1381.99 396.383C1375.87 404.885 1367.41 411.426 1357.65 415.214C1345.47 419.917 1332.49 422.167 1319.44 421.835C1306.2 422.118 1293.03 419.829 1280.66 415.094C1270.25 411.047 1261.29 403.959 1254.95 394.752C1248.83 385.7 1245.63 374.409 1245.36 360.88H1284.76C1284.81 366.105 1286.46 371.189 1289.48 375.451C1292.51 379.713 1296.76 382.949 1301.67 384.725C1307.21 386.831 1313.11 387.857 1319.03 387.747C1324.47 387.866 1329.89 386.979 1335.01 385.132C1339.05 383.705 1342.63 381.22 1345.39 377.936C1347.82 374.88 1349.15 371.093 1349.16 367.189C1349.19 363.688 1347.99 360.287 1345.75 357.593C1343.01 354.604 1339.61 352.296 1335.82 350.852C1330.47 348.671 1324.94 346.954 1319.3 345.719L1299.94 341.041C1284.52 337.363 1272.34 331.557 1263.42 323.625C1254.5 315.693 1250.07 304.946 1250.13 291.384C1249.85 280.978 1252.98 270.766 1259.05 262.31C1265.41 253.711 1273.97 246.989 1283.83 242.855C1295.2 238.032 1307.45 235.654 1319.8 235.874C1332.09 235.599 1344.3 237.98 1355.58 242.855C1365.17 247.026 1373.4 253.789 1379.35 262.382C1385.07 270.991 1388.08 281.119 1387.98 291.456L1348.87 291.576ZM1075.49 419.436H1035.03V281.861L1030.89 281.813L990.019 419.436H949.585L909.822 281.813L904.666 281.861V419.436H864.207V238.465H932.965L967.692 359.752H971.889L1006.62 238.465H1075.49V419.436ZM800.51 419.436H844.326L783.578 238.489H728.059L667.216 419.436H711.104L722.927 379.759H788.687L800.51 419.436ZM732.328 348.19L752.042 281.861H759.476L779.286 348.19H732.328ZM1400.43 257.608C1398.55 257.602 1396.72 257.044 1395.15 256.003C1393.59 254.963 1392.36 253.486 1391.63 251.755C1391.13 250.578 1390.88 249.314 1390.88 248.037C1390.88 246.76 1391.13 245.496 1391.63 244.318C1392.11 243.181 1392.8 242.147 1393.67 241.272C1394.55 240.405 1395.58 239.706 1396.71 239.209C1399.1 238.248 1401.76 238.248 1404.15 239.209C1405.28 239.7 1406.32 240.4 1407.19 241.272C1408.07 242.148 1408.77 243.182 1409.26 244.318C1409.75 245.496 1410.01 246.76 1410.01 248.037C1410.01 249.314 1409.75 250.578 1409.26 251.755C1408.77 252.892 1408.07 253.926 1407.19 254.801C1406.32 255.679 1405.29 256.38 1404.15 256.865C1402.97 257.357 1401.71 257.61 1400.43 257.608ZM1400.43 254.993C1401.67 255.008 1402.89 254.684 1403.96 254.058C1404.98 253.481 1405.85 252.656 1406.47 251.659C1407.09 250.593 1407.41 249.386 1407.41 248.157C1407.41 246.928 1407.09 245.72 1406.47 244.654C1405.84 243.658 1404.96 242.834 1403.93 242.255C1402.87 241.643 1401.66 241.321 1400.43 241.321C1399.2 241.321 1397.99 241.643 1396.93 242.255C1395.95 242.852 1395.13 243.675 1394.53 244.654C1393.9 245.714 1393.57 246.924 1393.57 248.157C1393.57 249.389 1393.9 250.599 1394.53 251.659C1395.13 252.638 1395.95 253.461 1396.93 254.058C1397.99 254.681 1399.2 255.005 1400.43 254.993ZM1396.93 252.235V243.431H1401.2C1401.77 243.419 1402.34 243.542 1402.85 243.791C1403.32 244.013 1403.71 244.362 1403.98 244.798C1404.26 245.277 1404.4 245.826 1404.39 246.381C1404.41 246.941 1404.26 247.492 1403.96 247.965C1403.69 248.408 1403.29 248.753 1402.81 248.948C1402.28 249.188 1401.7 249.303 1401.13 249.284H1398.25V247.557H1400.65C1400.96 247.573 1401.27 247.47 1401.51 247.269C1401.62 247.152 1401.71 247.012 1401.77 246.86C1401.83 246.707 1401.85 246.544 1401.85 246.381C1401.86 246.218 1401.83 246.054 1401.78 245.901C1401.72 245.747 1401.63 245.609 1401.51 245.494C1401.27 245.293 1400.96 245.19 1400.65 245.206H1399.33V252.235H1396.93ZM1402.66 248.205L1404.63 252.235H1401.97L1400.17 248.205H1402.66ZM677.288 28.5637H718.178V209.535H677.288V28.5637ZM912.364 119.049C912.364 138.912 908.599 155.704 901.068 169.426C894.073 182.673 883.428 193.637 870.395 201.019C856.995 208.169 842.042 211.91 826.855 211.91C811.668 211.91 796.714 208.169 783.315 201.019C770.278 193.609 759.634 182.621 752.641 169.354C745.111 155.504 741.345 138.712 741.345 118.977C741.345 99.2425 745.111 82.4104 752.641 68.4809C759.622 55.2734 770.231 44.3368 783.219 36.9597C796.623 29.8255 811.575 26.0944 826.759 26.0944C841.943 26.0944 856.894 29.8255 870.299 36.9597C883.332 44.3417 893.977 55.3057 900.973 68.5529C908.503 82.3704 912.268 99.2025 912.268 119.049M870.659 119.049C870.969 108.402 869.151 97.7992 865.311 87.8638C862.272 80.0985 856.986 73.4166 850.13 68.6728C843.115 64.3593 835.041 62.0757 826.807 62.0757C818.572 62.0757 810.499 64.3593 803.484 68.6728C796.62 73.4203 791.319 80.0995 788.255 87.8638C781.042 108.028 781.042 130.07 788.255 150.235C791.309 158.005 796.612 164.687 803.484 169.426C810.499 173.739 818.572 176.023 826.807 176.023C835.041 176.023 843.115 173.739 850.13 169.426C856.994 164.69 862.282 158.006 865.311 150.235C869.148 140.298 870.966 129.697 870.659 119.049ZM591.359 146.444L612.368 209.535H657.239L633.88 141.575H602.151L600.257 135.721C606.3 134.546 616.637 132.723 625.798 126.486C632.215 122.119 637.477 116.26 641.132 109.412C644.787 102.564 646.726 94.9309 646.783 87.1682C647.057 76.4456 644.351 65.8572 638.964 56.5825C633.7 47.6016 625.887 40.3876 616.517 35.8562C605.529 30.767 593.509 28.3032 581.406 28.6596H508.428V209.535H549.342V146.444H591.359ZM590.592 108.998C585.022 111.046 579.112 112.007 573.18 111.829H549.342V61.7881H573.109C579.044 61.6172 584.954 62.6283 590.496 64.7627C594.878 66.506 598.579 69.6193 601.048 73.6385C603.565 77.6903 604.818 82.4008 604.645 87.1682C604.841 91.8636 603.603 96.5072 601.096 100.482C598.615 104.389 594.927 107.379 590.592 108.998ZM916.225 28.5637V62.1479H986.494L988.413 68.0251C982.465 69.1766 972.416 70.9518 963.399 76.901V209.583H1003.86V62.0519H1050.91V28.4677L916.225 28.5637Z" fill="#754BC4"/>
</g>
<defs>
<clipPath id="clip0_308_2">
<rect width="1410" height="448" fill="white"/>
</clipPath>
</defs>
</svg>
